<?xml version="1.0" encoding="UTF-8" standalone="no"?>
<svg
   xmlns:dc="http://purl.org/dc/elements/1.1/"
   xmlns:cc="http://creativecommons.org/ns#"
   xmlns:rdf="http://www.w3.org/1999/02/22-rdf-syntax-ns#"
   xmlns:svg="http://www.w3.org/2000/svg"
   xmlns="http://www.w3.org/2000/svg"
   viewBox="0 0 1440 1440"
   height="1440"
   width="1440"
   xml:space="preserve"
   id="svg2"
   version="1.1"><metadata
     id="metadata8"><rdf:RDF><cc:Work
         rdf:about=""><dc:format>image/svg+xml</dc:format><dc:type
           rdf:resource="http://purl.org/dc/dcmitype/StillImage" /></cc:Work></rdf:RDF></metadata><defs
     id="defs6"><clipPath
       id="clipPath18"
       clipPathUnits="userSpaceOnUse"><path
         id="path16"
         d="M 0,1080 H 1080 V 0 H 0 Z" /></clipPath></defs><g
     transform="matrix(1.3333333,0,0,-1.3333333,0,1440)"
     id="g10"><g
       id="g12"><g
         clip-path="url(#clipPath18)"
         id="g14"><g
           transform="translate(539.291,308.7354)"
           id="g20"><path
             id="path22"
             style="fill:#bd302d;fill-opacity:1;fill-rule:evenodd;stroke:none"
             d="m 0,0 c -91.75,0 -183.5,0.1 -275.251,-0.07 -23.068,-0.047 -45.265,3.946 -66.382,13.014 -42.805,18.388 -60.117,56.805 -46.09,101.299 4.085,12.957 10.078,24.989 17.6,36.275 90.234,135.406 180.413,270.854 270.775,406.176 18.708,28.015 42.918,49.499 76.517,57.572 46.236,11.106 90.472,-8.794 123.008,-57.076 66.295,-98.373 131.635,-197.391 197.386,-296.13 23.631,-35.488 47.283,-70.958 70.997,-106.387 8.335,-12.453 15.478,-25.468 20.133,-39.776 C 403.042,70.791 387.556,34.041 345.638,14.262 324.142,4.122 301.207,-0.084 277.384,-0.051 184.926,0.075 92.463,0 0,0" /></g><g
           transform="translate(446.5405,684.292)"
           id="g24"><path
             id="path26"
             style="fill:#ffffff;fill-opacity:1;fill-rule:evenodd;stroke:none"
             d="m 0,0 c 24.151,0.004 48.307,0.004 72.462,0.004 7.152,0 14.366,-0.991 14.345,10.165 -0.016,10.748 -6.626,10.69 -14.128,10.652 -18.471,-0.083 -36.95,0.213 -55.412,-0.087 -15.371,-0.25 -30.874,-0.283 -38.038,16.637 -7.374,17.413 -6.231,34.667 5.409,50.324 20.917,28.14 51.666,36.013 84.007,39.63 22.688,2.534 45.464,1.008 67.74,-4.084 18.667,-4.272 33.675,-14.545 44.46,-30.657 29.024,-43.318 28.524,-125.587 -1,-168.472 -13.837,-20.096 -32.015,-31.066 -57.262,-30.466 -31.954,0.768 -63.94,0.388 -95.906,0.13 -36.117,-0.288 -59.313,-23.685 -59.93,-60.255 -0.284,-17.046 -0.009,-34.1 -0.109,-51.15 -0.033,-5.609 0.359,-10.694 -7.573,-12.845 -35.995,-9.76 -70.237,3.443 -86.565,37.518 -23.647,49.34 -24.081,100.627 -1.942,150.342 12.269,27.549 35.003,44.002 67.641,42.756 C -40.38,-0.004 -20.601,-0.004 0,0" /></g><g
           transform="translate(626.9521,459.7158)"
           id="g28"><path
             id="path30"
             style="fill:#fffffc;fill-opacity:1;fill-rule:evenodd;stroke:none"
             d="m 0,0 c -24.151,-0.004 -48.307,-0.004 -72.462,-0.004 -7.151,0 -14.366,0.991 -14.345,-10.165 0.017,-10.749 6.626,-10.69 14.128,-10.652 18.471,0.083 36.95,-0.213 55.413,0.087 15.37,0.25 30.873,0.284 38.038,-16.637 7.373,-17.412 6.231,-34.666 -5.41,-50.324 -20.917,-28.14 -51.666,-36.013 -84.007,-39.63 -22.688,-2.534 -45.464,-1.009 -67.74,4.085 -18.667,4.271 -33.675,14.545 -44.46,30.656 -29.024,43.318 -28.524,125.587 1,168.472 13.837,20.096 32.015,31.066 57.263,30.466 31.953,-0.768 63.939,-0.388 95.905,-0.13 36.117,0.288 59.314,23.685 59.931,60.256 0.283,17.045 0.008,34.099 0.108,51.149 0.034,5.61 -0.358,10.694 7.573,12.845 35.996,9.76 70.237,-3.443 86.565,-37.517 C 151.147,143.616 151.581,92.33 129.442,42.613 117.173,15.066 94.438,-1.388 61.802,-0.142 27.398,0.075 20.602,0.004 0,0" /></g><g
           transform="translate(493.1221,758.105)"
           id="g32"><path
             id="path34"
             style="fill:#bd302d;fill-opacity:1;fill-rule:evenodd;stroke:none"
             d="m 0,0 c 0,0 -3.068,-20.359 -16.587,-18.529 -6.077,0.825 -13.378,-0.767 -15.079,7.735 -1.084,5.401 19.33,23.134 25.756,22.472 C 2.934,10.765 0,0 0,0" /></g><g
           transform="translate(578.1748,383.4277)"
           id="g36"><path
             id="path38"
             style="fill:#bd302d;fill-opacity:1;fill-rule:evenodd;stroke:none"
             d="M 0,0 C 0,0 3.067,20.358 16.587,18.529 22.663,17.704 29.965,19.296 31.665,10.794 32.749,5.393 12.336,-12.341 5.909,-11.678 -2.935,-10.766 0,0 0,0" /></g><g
           transform="translate(672.4424,218.8213)"
           id="g40"><path
             id="path42"
             style="fill:#bd302d;fill-opacity:1;fill-rule:nonzero;stroke:none"
             d="m 0,0 c 0,8.031 -0.02,16.062 0.021,24.095 0.005,1.322 -0.421,2.776 0.953,3.838 9.923,7.678 20.67,12.348 33.529,9.074 1.619,-0.412 3.533,-0.941 4.581,-2.084 3.265,-3.563 6.213,-2.116 9.713,-0.398 6.81,3.346 14.055,4.671 21.576,2.709 9.073,-2.365 14.076,-8.797 14.107,-18.113 0.05,-14.518 -0.166,-29.04 0.126,-43.553 0.086,-4.269 -1.928,-4.404 -5.003,-4.19 -2.857,0.198 -6.112,-1.13 -6.005,4.173 0.269,13.275 -0.025,26.562 -0.096,39.845 -0.03,5.632 -0.909,10.996 -6.613,13.75 -5.883,2.84 -11.661,1.997 -17.224,-1.285 -1.827,-1.077 -2.323,-2.339 -2.301,-4.482 0.169,-16.062 -0.005,-32.126 0.273,-48.185 0.082,-4.706 -2.766,-3.808 -5.402,-3.778 -2.576,0.029 -5.537,-1.059 -5.445,3.723 0.26,13.586 0.294,27.185 0.01,40.771 C 36.535,28.572 26.023,34.531 14.829,28.771 12.096,27.363 10.785,25.646 10.828,22.3 11.026,6.857 10.637,-8.597 11.063,-24.03 c 0.153,-5.523 -2.957,-4.369 -6.081,-4.624 -3.503,-0.287 -5.298,0.282 -5.092,4.565 C 0.274,-16.076 0,-8.031 0,0" /></g><g
           transform="translate(816.4824,237.916)"
           id="g44"><path
             id="path46"
             style="fill:#bd302d;fill-opacity:1;fill-rule:nonzero;stroke:none"
             d="m 0,0 c -0.468,-4.896 -0.104,-9.87 -0.104,-14.81 -0.002,-5.711 -0.097,-11.426 0.044,-17.134 0.057,-2.288 -0.748,-3.583 -2.706,-4.786 -16.248,-9.986 -28.216,-4.444 -31.13,14.368 -0.965,6.234 -0.59,12.308 1.038,18.331 3.852,14.256 13.941,18.829 27.296,12.707 C -1.615,6.866 0.445,4.674 0,0 m 10.851,4.666 c 0.052,2.3 -1.363,3.277 -2.843,4.368 -7.653,5.639 -16.268,8.682 -25.698,9.557 -7.968,0.739 -14.568,-1.875 -19.746,-7.985 -10.975,-12.949 -11.838,-36.122 -1.85,-49.826 4.575,-6.276 10.702,-9.472 18.543,-9.687 7.537,-0.207 14.161,2.404 21.226,6.58 0,-2.543 0.019,-4.233 -0.003,-5.921 -0.224,-17.911 -4.56,-22.914 -22.204,-25.632 -0.153,-0.023 -0.331,-0.003 -0.455,-0.075 -1.426,-0.823 -4.585,0.624 -3.894,-2.983 0.519,-2.714 1.077,-4.99 4.902,-4.331 4.111,0.709 8.19,1.401 12.166,2.71 11.605,3.822 18.277,11.404 19.102,23.935 1.299,19.757 0.293,39.53 0.754,59.29" /></g><g
           transform="translate(294.9902,206.4482)"
           id="g48"><path
             id="path50"
             style="fill:#bd302d;fill-opacity:1;fill-rule:nonzero;stroke:none"
             d="m 0,0 c -2.915,-10.162 -10.771,-14.568 -21.017,-11.826 -0.446,0.119 -0.888,0.256 -1.33,0.393 -9.218,2.871 -9.498,3.245 -9.498,12.675 0,10.179 0.151,20.361 -0.088,30.533 -0.075,3.195 1.143,4.785 3.848,5.923 3.005,1.267 6.086,2.229 9.299,2.665 9.631,1.305 15.702,-2.652 18.454,-12.007 0.519,-1.763 0.878,-3.593 1.11,-5.419 C 1.184,19.732 1.436,16.509 1.751,13.293 1.613,8.778 1.242,4.333 0,0 m 9.163,34.441 c -2.969,6.286 -7.724,11.026 -14.67,12.415 -11.887,2.377 -22.938,-0.152 -33.013,-6.944 -2.645,-1.783 -3.781,-3.222 -3.73,-6.564 0.195,-12.808 0.079,-29.136 0.079,-37.671 h -0.151 c 0,-17.071 0.007,-24.526 -0.002,-36.41 -0.006,-7.768 0.041,-7.983 7.248,-10.51 2.999,-1.053 3.377,-0.301 3.352,2.332 -0.088,9.413 -0.035,18.734 -0.033,28.148 0.001,6.108 0.001,6.061 5.412,3.612 16.392,-7.422 32.143,-1.494 37.757,14.714 4.319,12.474 3.399,24.917 -2.249,36.878" /></g><g
           transform="translate(331.6987,253.6875)"
           id="g52"><path
             id="path54"
             style="fill:#bd302d;fill-opacity:1;fill-rule:nonzero;stroke:none"
             d="m 0,0 c 0,-13.699 0.116,-27.271 -0.048,-40.839 -0.086,-7.119 0.413,-13.848 7.963,-17.203 8.344,-3.708 15.978,-1.088 23.317,3.179 1.918,1.115 1.304,2.978 1.308,4.586 0.038,14.987 0.234,29.978 -0.102,44.958 -0.105,4.72 2.357,4.289 5.371,4.246 3.05,-0.044 5.934,0.802 5.791,-4.358 -0.615,-22.077 0.714,-44.186 -0.777,-66.253 -1.16,-17.177 -15.532,-29.196 -32.773,-27.909 -3.409,0.254 -2.669,2.884 -3.301,4.641 -0.892,2.473 1.402,2.285 2.734,2.505 4.116,0.678 8.211,1.358 12.134,2.868 6.716,2.583 10.466,7.323 11.02,14.577 0.306,3.999 0.874,7.98 0.441,12.453 -6.902,-2.54 -13.779,-4.52 -21.099,-4.612 -14.872,-0.187 -23.017,7.682 -23.02,22.534 -10e-4,12.206 0.159,24.414 -0.096,36.615 -0.078,3.677 0.754,5.806 4.563,6.421 C -4.483,-1.253 -2.607,0.099 0,0" /></g><g
           transform="translate(443.2334,245.8916)"
           id="g56"><path
             id="path58"
             style="fill:#bd302d;fill-opacity:1;fill-rule:nonzero;stroke:none"
             d="m 0,0 c 6.45,3.957 12.482,6.439 19.205,7.196 12.205,1.373 21.889,-5.561 22.503,-17.713 0.754,-14.947 0.303,-29.954 0.406,-44.935 0.013,-1.923 -0.698,-2.863 -2.72,-2.723 -1.384,0.097 -2.801,0.168 -4.166,-0.017 -3.293,-0.448 -4.173,0.929 -4.127,4.13 0.17,11.893 0.101,23.791 0.059,35.685 -0.062,17.08 -9.964,22.72 -24.931,14.509 -4.533,-2.488 -6.594,-5.305 -6.387,-10.816 0.491,-13.112 -0.041,-26.26 0.268,-39.384 0.104,-4.396 -2.137,-4.315 -5.102,-4.095 -2.654,0.196 -5.826,-1.234 -5.794,3.892 0.193,30.896 0.089,61.792 0.106,92.69 0.002,2.923 7.519,7.583 9.929,6.144 1.295,-0.773 0.719,-2.229 0.724,-3.372 C 0.016,29.451 0,17.71 0,5.97 Z" /></g><g
           transform="translate(544.1826,220.6338)"
           id="g60"><path
             id="path62"
             style="fill:#bd302d;fill-opacity:1;fill-rule:nonzero;stroke:none"
             d="m 0,0 c 0.083,-6.19 -0.577,-11.993 -2.909,-17.466 -2.64,-6.193 -7.172,-9.807 -14.145,-10.079 -7.028,-0.273 -11.909,3.034 -14.668,9.172 -4.785,10.644 -5.448,21.724 -1.98,32.875 2.257,7.257 7.652,11.008 15.093,11.642 6.324,0.539 12.63,-3.68 15.681,-10.222 C -0.534,10.79 0.218,5.331 0,0 M 11.859,3.86 C 10.253,24.207 -5.686,36.869 -24.555,32.87 -38.276,29.962 -47.522,16.859 -47.446,-0.453 c -0.152,-4.762 0.877,-10.201 2.943,-15.426 4.669,-11.809 13.846,-18.177 26.317,-18.359 12.257,-0.18 21.869,6.15 26.821,17.707 2.793,6.518 3.779,13.36 3.224,20.391" /></g><g
           transform="translate(651.6123,221.374)"
           id="g64"><path
             id="path66"
             style="fill:#bd302d;fill-opacity:1;fill-rule:nonzero;stroke:none"
             d="m 0,0 c -2.046,-0.06 -4.094,-0.044 -6.141,-0.063 -2.047,0.019 -4.095,0.003 -6.141,0.063 -4.532,0.133 -4.903,-1.664 -4.899,-5.338 0.005,-3.804 0.41,-5.774 5.13,-5.66 1.97,0.048 3.941,0.032 5.91,0.05 1.97,-0.018 3.94,-0.002 5.91,-0.05 4.719,-0.114 5.125,1.856 5.129,5.66 C 4.902,-1.664 4.532,0.133 0,0" /></g><g
           transform="translate(620.584,208.0488)"
           id="g68"><path
             id="path70"
             style="fill:#bd302d;fill-opacity:1;fill-rule:nonzero;stroke:none"
             d="m 0,0 c -0.019,9.113 0.023,18.228 -0.01,27.341 -0.035,9.823 -4.817,15.994 -14.483,18.089 -12.856,2.787 -24.385,-0.825 -35.116,-7.914 -2.039,-1.347 -2.849,-2.802 -2.8,-5.267 0.157,-8.031 0.058,-16.067 0.057,-24.102 0,-7.879 0.314,-15.777 -0.121,-23.633 -0.246,-4.439 1.461,-5.111 5.252,-4.924 3.406,0.168 6.06,-0.401 5.925,4.813 -0.394,15.286 -0.156,30.589 -0.114,45.885 0.004,1.614 -0.657,3.559 1.179,4.665 6.654,4.006 13.748,5.841 21.197,2.748 6.635,-2.754 8.304,-8.623 8.296,-15.228 -0.01,-7.973 0.035,-15.948 0.015,-23.92 -0.01,-4.697 -0.009,-9.393 -0.147,-14.085 -0.133,-4.531 1.665,-4.903 5.338,-4.898 3.804,0.005 5.774,0.41 5.66,5.129 C 0.005,-10.202 0.011,-5.101 0,0" /></g><g
           transform="translate(394.7217,222.04)"
           id="g72"><path
             id="path74"
             style="fill:#bd302d;fill-opacity:1;fill-rule:nonzero;stroke:none"
             d="m 0,0 c 0,6.479 -0.142,12.962 0.061,19.434 0.098,3.105 -0.697,4.751 -4.05,4.225 -3.073,-0.481 -3.445,1.162 -3.513,3.761 -0.076,2.901 1.267,3.465 3.623,3.117 3.002,-0.443 4.2,0.707 3.926,3.799 C -0.184,36.938 0,39.576 0,42.198 c 0,6.387 2.284,8.858 8.558,9.594 2.253,0.264 2.16,-1.108 2.168,-2.513 0.027,-4.935 0.131,-9.875 -0.022,-14.806 -0.088,-2.84 0.571,-4.432 3.821,-3.962 1.511,0.218 3.09,-0.076 4.621,0.061 2.565,0.23 3.965,-0.276 3.929,-3.411 -0.034,-3.031 -1.319,-3.509 -3.923,-3.548 -8.407,-0.126 -8.406,-0.214 -8.406,-8.597 10e-4,-10.797 -0.054,-21.595 0.025,-32.393 0.06,-8.294 1.563,-10.274 9.598,-12.045 2.235,-0.493 2.603,-1.428 2.645,-3.384 0.057,-2.574 -1.506,-2.518 -3.311,-2.598 C 7.024,-35.967 0.03,-29.34 0.003,-16.659 -0.009,-11.106 0,-5.553 0,0" /></g></g></g></g></svg>